<?xml version="1.0" standalone="no"?>
<!DOCTYPE svg PUBLIC "-//W3C//DTD SVG 20010904//EN"
 "http://www.w3.org/TR/2001/REC-SVG-20010904/DTD/svg10.dtd">
<svg version="1.0" xmlns="http://www.w3.org/2000/svg"
 width="147.000000pt" height="147.000000pt" viewBox="0 0 147.000000 147.000000"
 preserveAspectRatio="xMidYMid meet">
<metadata>
Created by potrace 1.11, written by Peter Selinger 2001-2013
</metadata>
<g transform="translate(0.000000,147.000000) scale(0.100000,-0.100000)"
fill="#000000" stroke="none">
<path d="M480 1410 l0 -40 -125 0 -125 0 0 -45 0 -45 40 0 40 0 0 -80 0 -80
-40 0 -40 0 0 -45 0 -45 -45 0 -45 0 0 -170 0 -170 45 0 45 0 0 -40 0 -40 -45
0 -45 0 0 -40 0 -40 -40 0 -40 0 0 -90 0 -90 40 0 40 0 0 -40 0 -40 45 0 45 0
0 -46 0 -46 40 4 40 4 0 -38 c0 -38 0 -38 -40 -38 l-40 0 0 -45 0 -45 215 0
215 0 0 40 0 40 75 0 75 0 0 -40 0 -40 215 0 215 0 0 45 0 45 -40 0 c-40 0
-40 0 -40 38 l0 38 40 -4 40 -4 0 46 0 46 45 0 45 0 0 40 0 40 40 0 40 0 0 90
0 90 -40 0 c-40 0 -40 0 -40 39 0 40 0 40 -42 43 -42 3 -43 4 -46 41 l-3 37
45 0 46 0 0 170 0 170 -45 0 -45 0 0 45 0 45 -40 0 -40 0 0 85 0 85 -39 0
c-39 0 -40 1 -43 38 -3 36 -4 37 -45 40 -43 3 -43 3 -43 43 l0 39 -255 0 -255
0 0 -40z m500 -85 l0 -35 -125 0 -125 0 0 -45 0 -45 -37 0 c-38 0 -38 0 -38
42 l0 43 -82 3 -83 3 0 34 0 35 245 0 245 0 0 -35z m-500 -85 l0 -40 -40 0
-40 0 0 40 0 40 40 0 40 0 0 -40z m590 0 l0 -40 -40 0 -40 0 0 40 0 40 40 0
40 0 0 -40z m-420 -90 l0 -40 45 0 45 0 0 40 0 40 120 0 120 0 0 -40 0 -40 45
0 45 0 0 -85 0 -85 45 0 45 0 0 40 c0 39 1 40 35 40 l34 0 3 -160 3 -160 -82
0 -83 0 0 -45 0 -45 -45 0 -45 0 0 -40 0 -40 -245 0 -245 0 0 40 0 40 -45 0
-45 0 0 45 0 45 -82 0 -83 0 3 160 3 160 34 0 35 0 0 -80 0 -80 45 0 45 0 0
125 0 125 45 0 45 0 0 40 0 40 80 0 80 0 0 -40z m-260 -585 c0 -33 -2 -35 -35
-35 -33 0 -35 2 -35 35 0 33 2 35 35 35 33 0 35 -2 35 -35z m760 0 c0 -34 -1
-35 -38 -35 -38 0 -38 0 -34 35 4 32 7 35 38 35 32 0 34 -2 34 -35z m-840
-125 l0 -80 -80 0 -80 0 0 80 0 80 80 0 80 0 0 -80z m170 40 l0 -40 40 0 40 0
0 -125 0 -125 -120 0 -120 0 0 40 0 40 40 0 40 0 0 125 0 125 40 0 40 0 0 -40z
m590 -85 l0 -125 40 0 40 0 0 -40 0 -40 -120 0 -120 0 0 125 0 125 40 0 40 0
0 40 0 40 40 0 40 0 0 -125z m250 45 l0 -80 -80 0 -80 0 0 80 0 80 80 0 80 0
0 -80z m-510 -125 l0 -35 -75 0 -75 0 0 35 0 35 75 0 75 0 0 -35z"/>
<path d="M560 781 l0 -91 50 0 51 0 -3 88 -3 87 -47 3 -48 3 0 -90z"/>
<path d="M817 863 c-4 -3 -7 -44 -7 -90 l0 -83 50 0 50 0 0 90 0 90 -43 0
c-24 0 -47 -3 -50 -7z"/>
</g>
</svg>
