<svg version="1" xmlns="http://www.w3.org/2000/svg" width="196" height="196" viewBox="0 0 147.000000 147.000000"><path d="M48 6v4H23v9h8v16h-8v9h-9v34h9v8h-9v8H6v18h8v8h9v9.2l4-.4 4-.4v3.8c0 3.8 0 3.8-4 3.8h-4v9h43v-8h15v8h43v-9h-4c-4 0-4 0-4-3.8v-3.8l4 .4 4 .4V120h9v-8h8V94h-4c-4 0-4 0-4-3.9 0-4 0-4-4.2-4.3-4.2-.3-4.3-.4-4.6-4.1l-.3-3.7h9.1V44h-9v-9h-8V18h-3.9c-3.9 0-4-.1-4.3-3.8-.3-3.6-.4-3.7-4.5-4C99 9.9 99 9.9 99 5.9V2H48v4zm50 8.5V18H73v9h-3.7c-3.8 0-3.8 0-3.8-4.2v-4.3l-8.2-.3-8.3-.3V11h49v3.5zM48 23v4h-8v-8h8v4zm59 0v4h-8v-8h8v4zm-42 9v4h9v-8h24v8h9v17h9v-4c0-3.9.1-4 3.5-4h3.4l.3 16 .3 16H107v9h-9v8H49v-8h-9v-9H23.5l.3-16 .3-16H31v16h9V36h9v-8h16v4zM39 90.5c0 3.3-.2 3.5-3.5 3.5s-3.5-.2-3.5-3.5.2-3.5 3.5-3.5 3.5.2 3.5 3.5zm76 0c0 3.4-.1 3.5-3.8 3.5-3.8 0-3.8 0-3.4-3.5.4-3.2.7-3.5 3.8-3.5 3.2 0 3.4.2 3.4 3.5zM31 103v8H15V95h16v8zm17-4v4h8v25H32v-8h8V95h8v4zm59 8.5V120h8v8H91v-25h8v-8h8v12.5zm25-4.5v8h-16V95h16v8zm-51 12.5v3.5H66v-7h15v3.5z"/><path d="M56 68.9V78h10.1l-.3-8.8-.3-8.7-4.7-.3-4.8-.3v9zm25.7-8.2c-.4.3-.7 4.4-.7 9V78h10V60h-4.3c-2.4 0-4.7.3-5 .7z"/></svg>